<?xml version="1.0" encoding="utf-8" standalone="no"?>
<!DOCTYPE svg PUBLIC "-//W3C//DTD SVG 1.1//EN"
  "http://www.w3.org/Graphics/SVG/1.1/DTD/svg11.dtd">
<!-- Created with matplotlib (http://matplotlib.org/) -->
<svg height="432pt" version="1.1" viewBox="0 0 576 432" width="576pt" xmlns="http://www.w3.org/2000/svg" xmlns:xlink="http://www.w3.org/1999/xlink">
 <defs>
  <style type="text/css">
*{stroke-linecap:butt;stroke-linejoin:round;}
  </style>
 </defs>
 <g id="figure_1">
  <g id="patch_1">
   <path d="
M0 432
L576 432
L576 0
L0 0
z
" style="fill:#ffffff;"/>
  </g>
  <g id="axes_1">
   <g id="patch_2">
    <path d="
M74.7552 371.871
L558.72 371.871
L558.72 33.08
L74.7552 33.08
z
" style="fill:#ffffff;"/>
   </g>
   <g id="patch_3">
    <path clip-path="url(#p20575337b0)" d="
M79.4387 34250.9
L82.5611 34250.9
L82.5611 34250.9
L79.4387 34250.9
z
" style="fill:#ffff00;stroke:#000000;"/>
   </g>
   <g id="patch_4">
    <path clip-path="url(#p20575337b0)" d="
M87.2446 34250.9
L90.3669 34250.9
L90.3669 450.805
L87.2446 450.805
z
" style="fill:#ffff00;stroke:#000000;"/>
   </g>
   <g id="patch_5">
    <path clip-path="url(#p20575337b0)" d="
M95.0505 34250.9
L98.1728 34250.9
L98.1728 430.919
L95.0505 430.919
z
" style="fill:#ffff00;stroke:#000000;"/>
   </g>
   <g id="patch_6">
    <path clip-path="url(#p20575337b0)" d="
M102.856 34250.9
L105.979 34250.9
L105.979 405.866
L102.856 405.866
z
" style="fill:#ffff00;stroke:#000000;"/>
   </g>
   <g id="patch_7">
    <path clip-path="url(#p20575337b0)" d="
M110.662 34250.9
L113.785 34250.9
L113.785 371.871
L110.662 371.871
z
" style="fill:#ffff00;stroke:#000000;"/>
   </g>
   <g id="patch_8">
    <path clip-path="url(#p20575337b0)" d="
M118.468 34250.9
L121.59 34250.9
L121.59 382.815
L118.468 382.815
z
" style="fill:#ffff00;stroke:#000000;"/>
   </g>
   <g id="patch_9">
    <path clip-path="url(#p20575337b0)" d="
M126.274 34250.9
L129.396 34250.9
L129.396 389.364
L126.274 389.364
z
" style="fill:#ffff00;stroke:#000000;"/>
   </g>
   <g id="patch_10">
    <path clip-path="url(#p20575337b0)" d="
M134.08 34250.9
L137.202 34250.9
L137.202 382.815
L134.08 382.815
z
" style="fill:#ffff00;stroke:#000000;"/>
   </g>
   <g id="patch_11">
    <path clip-path="url(#p20575337b0)" d="
M141.886 34250.9
L145.008 34250.9
L145.008 293.927
L141.886 293.927
z
" style="fill:#ffff00;stroke:#000000;"/>
   </g>
   <g id="patch_12">
    <path clip-path="url(#p20575337b0)" d="
M149.692 34250.9
L152.814 34250.9
L152.814 261.975
L149.692 261.975
z
" style="fill:#ffff00;stroke:#000000;"/>
   </g>
   <g id="patch_13">
    <path clip-path="url(#p20575337b0)" d="
M82.5611 34250.9
L85.6834 34250.9
L85.6834 484.801
L82.5611 484.801
z
" style="fill:#0000ff;stroke:#000000;"/>
   </g>
   <g id="patch_14">
    <path clip-path="url(#p20575337b0)" d="
M90.3669 34250.9
L93.4893 34250.9
L93.4893 450.805
L90.3669 450.805
z
" style="fill:#0000ff;stroke:#000000;"/>
   </g>
   <g id="patch_15">
    <path clip-path="url(#p20575337b0)" d="
M98.1728 34250.9
L101.295 34250.9
L101.295 430.919
L98.1728 430.919
z
" style="fill:#0000ff;stroke:#000000;"/>
   </g>
   <g id="patch_16">
    <path clip-path="url(#p20575337b0)" d="
M105.979 34250.9
L109.101 34250.9
L109.101 405.866
L105.979 405.866
z
" style="fill:#0000ff;stroke:#000000;"/>
   </g>
   <g id="patch_17">
    <path clip-path="url(#p20575337b0)" d="
M113.785 34250.9
L116.907 34250.9
L116.907 377.038
L113.785 377.038
z
" style="fill:#0000ff;stroke:#000000;"/>
   </g>
   <g id="patch_18">
    <path clip-path="url(#p20575337b0)" d="
M121.59 34250.9
L124.713 34250.9
L124.713 362.929
L121.59 362.929
z
" style="fill:#0000ff;stroke:#000000;"/>
   </g>
   <g id="patch_19">
    <path clip-path="url(#p20575337b0)" d="
M129.396 34250.9
L132.519 34250.9
L132.519 362.929
L129.396 362.929
z
" style="fill:#0000ff;stroke:#000000;"/>
   </g>
   <g id="patch_20">
    <path clip-path="url(#p20575337b0)" d="
M137.202 34250.9
L140.325 34250.9
L140.325 359.003
L137.202 359.003
z
" style="fill:#0000ff;stroke:#000000;"/>
   </g>
   <g id="patch_21">
    <path clip-path="url(#p20575337b0)" d="
M145.008 34250.9
L148.13 34250.9
L148.13 307.703
L145.008 307.703
z
" style="fill:#0000ff;stroke:#000000;"/>
   </g>
   <g id="patch_22">
    <path clip-path="url(#p20575337b0)" d="
M152.814 34250.9
L155.936 34250.9
L155.936 262.5
L152.814 262.5
z
" style="fill:#0000ff;stroke:#000000;"/>
   </g>
   <g id="patch_23">
    <path clip-path="url(#p20575337b0)" d="
M165.303 34250.9
L168.426 34250.9
L168.426 355.368
L165.303 355.368
z
" style="fill:#ffff00;stroke:#000000;"/>
   </g>
   <g id="patch_24">
    <path clip-path="url(#p20575337b0)" d="
M173.109 34250.9
L176.232 34250.9
L176.232 355.368
L173.109 355.368
z
" style="fill:#ffff00;stroke:#000000;"/>
   </g>
   <g id="patch_25">
    <path clip-path="url(#p20575337b0)" d="
M180.915 34250.9
L184.038 34250.9
L184.038 355.368
L180.915 355.368
z
" style="fill:#ffff00;stroke:#000000;"/>
   </g>
   <g id="patch_26">
    <path clip-path="url(#p20575337b0)" d="
M188.721 34250.9
L191.843 34250.9
L191.843 335.482
L188.721 335.482
z
" style="fill:#ffff00;stroke:#000000;"/>
   </g>
   <g id="patch_27">
    <path clip-path="url(#p20575337b0)" d="
M196.527 34250.9
L199.649 34250.9
L199.649 309.047
L196.527 309.047
z
" style="fill:#ffff00;stroke:#000000;"/>
   </g>
   <g id="patch_28">
    <path clip-path="url(#p20575337b0)" d="
M204.333 34250.9
L207.455 34250.9
L207.455 264.108
L204.333 264.108
z
" style="fill:#ffff00;stroke:#000000;"/>
   </g>
   <g id="patch_29">
    <path clip-path="url(#p20575337b0)" d="
M212.139 34250.9
L215.261 34250.9
L215.261 301.487
L212.139 301.487
z
" style="fill:#ffff00;stroke:#000000;"/>
   </g>
   <g id="patch_30">
    <path clip-path="url(#p20575337b0)" d="
M219.945 34250.9
L223.067 34250.9
L223.067 258.452
L219.945 258.452
z
" style="fill:#ffff00;stroke:#000000;"/>
   </g>
   <g id="patch_31">
    <path clip-path="url(#p20575337b0)" d="
M227.751 34250.9
L230.873 34250.9
L230.873 298.103
L227.751 298.103
z
" style="fill:#ffff00;stroke:#000000;"/>
   </g>
   <g id="patch_32">
    <path clip-path="url(#p20575337b0)" d="
M168.426 34250.9
L171.548 34250.9
L171.548 333.201
L168.426 333.201
z
" style="fill:#0000ff;stroke:#000000;"/>
   </g>
   <g id="patch_33">
    <path clip-path="url(#p20575337b0)" d="
M176.232 34250.9
L179.354 34250.9
L179.354 331.021
L176.232 331.021
z
" style="fill:#0000ff;stroke:#000000;"/>
   </g>
   <g id="patch_34">
    <path clip-path="url(#p20575337b0)" d="
M184.038 34250.9
L187.16 34250.9
L187.16 331.021
L184.038 331.021
z
" style="fill:#0000ff;stroke:#000000;"/>
   </g>
   <g id="patch_35">
    <path clip-path="url(#p20575337b0)" d="
M191.843 34250.9
L194.966 34250.9
L194.966 313.315
L191.843 313.315
z
" style="fill:#0000ff;stroke:#000000;"/>
   </g>
   <g id="patch_36">
    <path clip-path="url(#p20575337b0)" d="
M199.649 34250.9
L202.772 34250.9
L202.772 300.333
L199.649 300.333
z
" style="fill:#0000ff;stroke:#000000;"/>
   </g>
   <g id="patch_37">
    <path clip-path="url(#p20575337b0)" d="
M207.455 34250.9
L210.578 34250.9
L210.578 275.738
L207.455 275.738
z
" style="fill:#0000ff;stroke:#000000;"/>
   </g>
   <g id="patch_38">
    <path clip-path="url(#p20575337b0)" d="
M215.261 34250.9
L218.383 34250.9
L218.383 259.931
L215.261 259.931
z
" style="fill:#0000ff;stroke:#000000;"/>
   </g>
   <g id="patch_39">
    <path clip-path="url(#p20575337b0)" d="
M223.067 34250.9
L226.189 34250.9
L226.189 258.452
L223.067 258.452
z
" style="fill:#0000ff;stroke:#000000;"/>
   </g>
   <g id="patch_40">
    <path clip-path="url(#p20575337b0)" d="
M230.873 34250.9
L233.995 34250.9
L233.995 232.628
L230.873 232.628
z
" style="fill:#0000ff;stroke:#000000;"/>
   </g>
   <g id="patch_41">
    <path clip-path="url(#p20575337b0)" d="
M243.362 34250.9
L246.485 34250.9
L246.485 484.801
L243.362 484.801
z
" style="fill:#ffff00;stroke:#000000;"/>
   </g>
   <g id="patch_42">
    <path clip-path="url(#p20575337b0)" d="
M251.168 34250.9
L254.291 34250.9
L254.291 484.801
L251.168 484.801
z
" style="fill:#ffff00;stroke:#000000;"/>
   </g>
   <g id="patch_43">
    <path clip-path="url(#p20575337b0)" d="
M258.974 34250.9
L262.096 34250.9
L262.096 450.805
L258.974 450.805
z
" style="fill:#ffff00;stroke:#000000;"/>
   </g>
   <g id="patch_44">
    <path clip-path="url(#p20575337b0)" d="
M266.78 34250.9
L269.902 34250.9
L269.902 430.919
L266.78 430.919
z
" style="fill:#ffff00;stroke:#000000;"/>
   </g>
   <g id="patch_45">
    <path clip-path="url(#p20575337b0)" d="
M274.586 34250.9
L277.708 34250.9
L277.708 314.824
L274.586 314.824
z
" style="fill:#ffff00;stroke:#000000;"/>
   </g>
   <g id="patch_46">
    <path clip-path="url(#p20575337b0)" d="
M282.392 34250.9
L285.514 34250.9
L285.514 333.201
L282.392 333.201
z
" style="fill:#ffff00;stroke:#000000;"/>
   </g>
   <g id="patch_47">
    <path clip-path="url(#p20575337b0)" d="
M290.198 34250.9
L293.32 34250.9
L293.32 305.122
L290.198 305.122
z
" style="fill:#ffff00;stroke:#000000;"/>
   </g>
   <g id="patch_48">
    <path clip-path="url(#p20575337b0)" d="
M298.003 34250.9
L301.126 34250.9
L301.126 302.669
L298.003 302.669
z
" style="fill:#ffff00;stroke:#000000;"/>
   </g>
   <g id="patch_49">
    <path clip-path="url(#p20575337b0)" d="
M305.809 34250.9
L308.932 34250.9
L308.932 172.811
L305.809 172.811
z
" style="fill:#ffff00;stroke:#000000;"/>
   </g>
   <g id="patch_50">
    <path clip-path="url(#p20575337b0)" d="
M313.615 34250.9
L316.738 34250.9
L316.738 172.896
L313.615 172.896
z
" style="fill:#ffff00;stroke:#000000;"/>
   </g>
   <g id="patch_51">
    <path clip-path="url(#p20575337b0)" d="
M321.421 34250.9
L324.543 34250.9
L324.543 172.811
L321.421 172.811
z
" style="fill:#ffff00;stroke:#000000;"/>
   </g>
   <g id="patch_52">
    <path clip-path="url(#p20575337b0)" d="
M329.227 34250.9
L332.349 34250.9
L332.349 95.5301
L329.227 95.5301
z
" style="fill:#ffff00;stroke:#000000;"/>
   </g>
   <g id="patch_53">
    <path clip-path="url(#p20575337b0)" d="
M246.485 34250.9
L249.607 34250.9
L249.607 484.801
L246.485 484.801
z
" style="fill:#0000ff;stroke:#000000;"/>
   </g>
   <g id="patch_54">
    <path clip-path="url(#p20575337b0)" d="
M254.291 34250.9
L257.413 34250.9
L257.413 484.801
L254.291 484.801
z
" style="fill:#0000ff;stroke:#000000;"/>
   </g>
   <g id="patch_55">
    <path clip-path="url(#p20575337b0)" d="
M262.096 34250.9
L265.219 34250.9
L265.219 484.801
L262.096 484.801
z
" style="fill:#0000ff;stroke:#000000;"/>
   </g>
   <g id="patch_56">
    <path clip-path="url(#p20575337b0)" d="
M269.902 34250.9
L273.025 34250.9
L273.025 416.81
L269.902 416.81
z
" style="fill:#0000ff;stroke:#000000;"/>
   </g>
   <g id="patch_57">
    <path clip-path="url(#p20575337b0)" d="
M277.708 34250.9
L280.831 34250.9
L280.831 317.989
L277.708 317.989
z
" style="fill:#0000ff;stroke:#000000;"/>
   </g>
   <g id="patch_58">
    <path clip-path="url(#p20575337b0)" d="
M285.514 34250.9
L288.636 34250.9
L288.636 316.381
L285.514 316.381
z
" style="fill:#0000ff;stroke:#000000;"/>
   </g>
   <g id="patch_59">
    <path clip-path="url(#p20575337b0)" d="
M293.32 34250.9
L296.442 34250.9
L296.442 301.487
L293.32 301.487
z
" style="fill:#0000ff;stroke:#000000;"/>
   </g>
   <g id="patch_60">
    <path clip-path="url(#p20575337b0)" d="
M301.126 34250.9
L304.248 34250.9
L304.248 299.205
L301.126 299.205
z
" style="fill:#0000ff;stroke:#000000;"/>
   </g>
   <g id="patch_61">
    <path clip-path="url(#p20575337b0)" d="
M308.932 34250.9
L312.054 34250.9
L312.054 143.711
L308.932 143.711
z
" style="fill:#0000ff;stroke:#000000;"/>
   </g>
   <g id="patch_62">
    <path clip-path="url(#p20575337b0)" d="
M316.738 34250.9
L319.86 34250.9
L319.86 141.784
L316.738 141.784
z
" style="fill:#0000ff;stroke:#000000;"/>
   </g>
   <g id="patch_63">
    <path clip-path="url(#p20575337b0)" d="
M324.543 34250.9
L327.666 34250.9
L327.666 129.543
L324.543 129.543
z
" style="fill:#0000ff;stroke:#000000;"/>
   </g>
   <g id="patch_64">
    <path clip-path="url(#p20575337b0)" d="
M332.349 34250.9
L335.472 34250.9
L335.472 112.039
L332.349 112.039
z
" style="fill:#0000ff;stroke:#000000;"/>
   </g>
   <g id="patch_65">
    <path clip-path="url(#p20575337b0)" d="
M344.839 34250.9
L347.961 34250.9
L347.961 355.368
L344.839 355.368
z
" style="fill:#ffff00;stroke:#000000;"/>
   </g>
   <g id="patch_66">
    <path clip-path="url(#p20575337b0)" d="
M352.645 34250.9
L355.767 34250.9
L355.767 340.391
L352.645 340.391
z
" style="fill:#ffff00;stroke:#000000;"/>
   </g>
   <g id="patch_67">
    <path clip-path="url(#p20575337b0)" d="
M360.451 34250.9
L363.573 34250.9
L363.573 328.933
L360.451 328.933
z
" style="fill:#ffff00;stroke:#000000;"/>
   </g>
   <g id="patch_68">
    <path clip-path="url(#p20575337b0)" d="
M368.256 34250.9
L371.379 34250.9
L371.379 319.652
L368.256 319.652
z
" style="fill:#ffff00;stroke:#000000;"/>
   </g>
   <g id="patch_69">
    <path clip-path="url(#p20575337b0)" d="
M376.062 34250.9
L379.185 34250.9
L379.185 340.391
L376.062 340.391
z
" style="fill:#ffff00;stroke:#000000;"/>
   </g>
   <g id="patch_70">
    <path clip-path="url(#p20575337b0)" d="
M383.868 34250.9
L386.991 34250.9
L386.991 317.989
L383.868 317.989
z
" style="fill:#ffff00;stroke:#000000;"/>
   </g>
   <g id="patch_71">
    <path clip-path="url(#p20575337b0)" d="
M391.674 34250.9
L394.796 34250.9
L394.796 307.703
L391.674 307.703
z
" style="fill:#ffff00;stroke:#000000;"/>
   </g>
   <g id="patch_72">
    <path clip-path="url(#p20575337b0)" d="
M399.48 34250.9
L402.602 34250.9
L402.602 309.047
L399.48 309.047
z
" style="fill:#ffff00;stroke:#000000;"/>
   </g>
   <g id="patch_73">
    <path clip-path="url(#p20575337b0)" d="
M407.286 34250.9
L410.408 34250.9
L410.408 241.742
L407.286 241.742
z
" style="fill:#ffff00;stroke:#000000;"/>
   </g>
   <g id="patch_74">
    <path clip-path="url(#p20575337b0)" d="
M415.092 34250.9
L418.214 34250.9
L418.214 173.752
L415.092 173.752
z
" style="fill:#ffff00;stroke:#000000;"/>
   </g>
   <g id="patch_75">
    <path clip-path="url(#p20575337b0)" d="
M422.898 34250.9
L426.02 34250.9
L426.02 177.24
L422.898 177.24
z
" style="fill:#ffff00;stroke:#000000;"/>
   </g>
   <g id="patch_76">
    <path clip-path="url(#p20575337b0)" d="
M430.703 34250.9
L433.826 34250.9
L433.826 177.333
L430.703 177.333
z
" style="fill:#ffff00;stroke:#000000;"/>
   </g>
   <g id="patch_77">
    <path clip-path="url(#p20575337b0)" d="
M438.509 34250.9
L441.632 34250.9
L441.632 177.148
L438.509 177.148
z
" style="fill:#ffff00;stroke:#000000;"/>
   </g>
   <g id="patch_78">
    <path clip-path="url(#p20575337b0)" d="
M446.315 34250.9
L449.438 34250.9
L449.438 100.08
L446.315 100.08
z
" style="fill:#ffff00;stroke:#000000;"/>
   </g>
   <g id="patch_79">
    <path clip-path="url(#p20575337b0)" d="
M347.961 34250.9
L351.083 34250.9
L351.083 355.368
L347.961 355.368
z
" style="fill:#0000ff;stroke:#000000;"/>
   </g>
   <g id="patch_80">
    <path clip-path="url(#p20575337b0)" d="
M355.767 34250.9
L358.889 34250.9
L358.889 337.875
L355.767 337.875
z
" style="fill:#0000ff;stroke:#000000;"/>
   </g>
   <g id="patch_81">
    <path clip-path="url(#p20575337b0)" d="
M363.573 34250.9
L366.695 34250.9
L366.695 326.931
L363.573 326.931
z
" style="fill:#0000ff;stroke:#000000;"/>
   </g>
   <g id="patch_82">
    <path clip-path="url(#p20575337b0)" d="
M371.379 34250.9
L374.501 34250.9
L374.501 323.157
L371.379 323.157
z
" style="fill:#0000ff;stroke:#000000;"/>
   </g>
   <g id="patch_83">
    <path clip-path="url(#p20575337b0)" d="
M379.185 34250.9
L382.307 34250.9
L382.307 321.373
L379.185 321.373
z
" style="fill:#0000ff;stroke:#000000;"/>
   </g>
   <g id="patch_84">
    <path clip-path="url(#p20575337b0)" d="
M386.991 34250.9
L390.113 34250.9
L390.113 317.989
L386.991 317.989
z
" style="fill:#0000ff;stroke:#000000;"/>
   </g>
   <g id="patch_85">
    <path clip-path="url(#p20575337b0)" d="
M394.796 34250.9
L397.919 34250.9
L397.919 303.88
L394.796 303.88
z
" style="fill:#0000ff;stroke:#000000;"/>
   </g>
   <g id="patch_86">
    <path clip-path="url(#p20575337b0)" d="
M402.602 34250.9
L405.725 34250.9
L405.725 303.88
L402.602 303.88
z
" style="fill:#0000ff;stroke:#000000;"/>
   </g>
   <g id="patch_87">
    <path clip-path="url(#p20575337b0)" d="
M410.408 34250.9
L413.531 34250.9
L413.531 242.438
L410.408 242.438
z
" style="fill:#0000ff;stroke:#000000;"/>
   </g>
   <g id="patch_88">
    <path clip-path="url(#p20575337b0)" d="
M418.214 34250.9
L421.336 34250.9
L421.336 174.098
L418.214 174.098
z
" style="fill:#0000ff;stroke:#000000;"/>
   </g>
   <g id="patch_89">
    <path clip-path="url(#p20575337b0)" d="
M426.02 34250.9
L429.142 34250.9
L429.142 148.115
L426.02 148.115
z
" style="fill:#0000ff;stroke:#000000;"/>
   </g>
   <g id="patch_90">
    <path clip-path="url(#p20575337b0)" d="
M433.826 34250.9
L436.948 34250.9
L436.948 145.328
L433.826 145.328
z
" style="fill:#0000ff;stroke:#000000;"/>
   </g>
   <g id="patch_91">
    <path clip-path="url(#p20575337b0)" d="
M441.632 34250.9
L444.754 34250.9
L444.754 134.018
L441.632 134.018
z
" style="fill:#0000ff;stroke:#000000;"/>
   </g>
   <g id="patch_92">
    <path clip-path="url(#p20575337b0)" d="
M449.438 34250.9
L452.56 34250.9
L452.56 118.229
L449.438 118.229
z
" style="fill:#0000ff;stroke:#000000;"/>
   </g>
   <g id="patch_93">
    <path clip-path="url(#p20575337b0)" d="
M461.927 34250.9
L465.049 34250.9
L465.049 310.429
L461.927 310.429
z
" style="fill:#ffff00;stroke:#000000;"/>
   </g>
   <g id="patch_94">
    <path clip-path="url(#p20575337b0)" d="
M469.733 34250.9
L472.855 34250.9
L472.855 305.122
L469.733 305.122
z
" style="fill:#ffff00;stroke:#000000;"/>
   </g>
   <g id="patch_95">
    <path clip-path="url(#p20575337b0)" d="
M477.539 34250.9
L480.661 34250.9
L480.661 275.738
L477.539 275.738
z
" style="fill:#ffff00;stroke:#000000;"/>
   </g>
   <g id="patch_96">
    <path clip-path="url(#p20575337b0)" d="
M485.345 34250.9
L488.467 34250.9
L488.467 275.738
L485.345 275.738
z
" style="fill:#ffff00;stroke:#000000;"/>
   </g>
   <g id="patch_97">
    <path clip-path="url(#p20575337b0)" d="
M493.151 34250.9
L496.273 34250.9
L496.273 294.938
L493.151 294.938
z
" style="fill:#ffff00;stroke:#000000;"/>
   </g>
   <g id="patch_98">
    <path clip-path="url(#p20575337b0)" d="
M500.956 34250.9
L504.079 34250.9
L504.079 241.742
L500.956 241.742
z
" style="fill:#ffff00;stroke:#000000;"/>
   </g>
   <g id="patch_99">
    <path clip-path="url(#p20575337b0)" d="
M508.762 34250.9
L511.885 34250.9
L511.885 283.994
L508.762 283.994
z
" style="fill:#ffff00;stroke:#000000;"/>
   </g>
   <g id="patch_100">
    <path clip-path="url(#p20575337b0)" d="
M516.568 34250.9
L519.691 34250.9
L519.691 148.578
L516.568 148.578
z
" style="fill:#ffff00;stroke:#000000;"/>
   </g>
   <g id="patch_101">
    <path clip-path="url(#p20575337b0)" d="
M524.374 34250.9
L527.496 34250.9
L527.496 148.371
L524.374 148.371
z
" style="fill:#ffff00;stroke:#000000;"/>
   </g>
   <g id="patch_102">
    <path clip-path="url(#p20575337b0)" d="
M532.18 34250.9
L535.302 34250.9
L535.302 269.884
L532.18 269.884
z
" style="fill:#ffff00;stroke:#000000;"/>
   </g>
   <g id="patch_103">
    <path clip-path="url(#p20575337b0)" d="
M539.986 34250.9
L543.108 34250.9
L543.108 64.879
L539.986 64.879
z
" style="fill:#ffff00;stroke:#000000;"/>
   </g>
   <g id="patch_104">
    <path clip-path="url(#p20575337b0)" d="
M547.792 34250.9
L550.914 34250.9
L550.914 148.578
L547.792 148.578
z
" style="fill:#ffff00;stroke:#000000;"/>
   </g>
   <g id="patch_105">
    <path clip-path="url(#p20575337b0)" d="
M465.049 34250.9
L468.172 34250.9
L468.172 310.429
L465.049 310.429
z
" style="fill:#0000ff;stroke:#000000;"/>
   </g>
   <g id="patch_106">
    <path clip-path="url(#p20575337b0)" d="
M472.855 34250.9
L475.978 34250.9
L475.978 286.51
L472.855 286.51
z
" style="fill:#0000ff;stroke:#000000;"/>
   </g>
   <g id="patch_107">
    <path clip-path="url(#p20575337b0)" d="
M480.661 34250.9
L483.784 34250.9
L483.784 273.708
L480.661 273.708
z
" style="fill:#0000ff;stroke:#000000;"/>
   </g>
   <g id="patch_108">
    <path clip-path="url(#p20575337b0)" d="
M488.467 34250.9
L491.589 34250.9
L491.589 273.708
L488.467 273.708
z
" style="fill:#0000ff;stroke:#000000;"/>
   </g>
   <g id="patch_109">
    <path clip-path="url(#p20575337b0)" d="
M496.273 34250.9
L499.395 34250.9
L499.395 251.24
L496.273 251.24
z
" style="fill:#0000ff;stroke:#000000;"/>
   </g>
   <g id="patch_110">
    <path clip-path="url(#p20575337b0)" d="
M504.079 34250.9
L507.201 34250.9
L507.201 236.817
L504.079 236.817
z
" style="fill:#0000ff;stroke:#000000;"/>
   </g>
   <g id="patch_111">
    <path clip-path="url(#p20575337b0)" d="
M511.885 34250.9
L515.007 34250.9
L515.007 236.817
L511.885 236.817
z
" style="fill:#0000ff;stroke:#000000;"/>
   </g>
   <g id="patch_112">
    <path clip-path="url(#p20575337b0)" d="
M519.691 34250.9
L522.813 34250.9
L522.813 113.813
L519.691 113.813
z
" style="fill:#0000ff;stroke:#000000;"/>
   </g>
   <g id="patch_113">
    <path clip-path="url(#p20575337b0)" d="
M527.496 34250.9
L530.619 34250.9
L530.619 111.551
L527.496 111.551
z
" style="fill:#0000ff;stroke:#000000;"/>
   </g>
   <g id="patch_114">
    <path clip-path="url(#p20575337b0)" d="
M535.302 34250.9
L538.425 34250.9
L538.425 89.6581
L535.302 89.6581
z
" style="fill:#0000ff;stroke:#000000;"/>
   </g>
   <g id="patch_115">
    <path clip-path="url(#p20575337b0)" d="
M543.108 34250.9
L546.231 34250.9
L546.231 79.7541
L543.108 79.7541
z
" style="fill:#0000ff;stroke:#000000;"/>
   </g>
   <g id="patch_116">
    <path clip-path="url(#p20575337b0)" d="
M550.914 34250.9
L554.036 34250.9
L554.036 79.7414
L550.914 79.7414
z
" style="fill:#0000ff;stroke:#000000;"/>
   </g>
   <g id="matplotlib.axis_1">
    <g id="xtick_1">
     <g id="line2d_1">
      <path clip-path="url(#p20575337b0)" d="
M117.688 371.871
L117.688 33.08" style="fill:none;stroke:#000000;stroke-dasharray:1.000000,3.000000;stroke-dashoffset:0.0;stroke-width:0.5;"/>
     </g>
     <g id="line2d_2">
      <defs>
       <path d="
M0 0
L0 -4" id="m93b0483c22" style="stroke:#000000;stroke-width:0.5;"/>
      </defs>
      <g>
       <use style="stroke:#000000;stroke-width:0.5;" x="117.687539498" xlink:href="#m93b0483c22" y="371.870602176"/>
      </g>
     </g>
     <g id="line2d_3">
      <defs>
       <path d="
M0 0
L0 4" id="m741efc42ff" style="stroke:#000000;stroke-width:0.5;"/>
      </defs>
      <g>
       <use style="stroke:#000000;stroke-width:0.5;" x="117.687539498" xlink:href="#m741efc42ff" y="33.08"/>
      </g>
     </g>
     <g id="text_1">
      <!-- sha-py-uinst -->
      <defs>
       <path d="
M4.89062 31.3906
L31.2031 31.3906
L31.2031 23.3906
L4.89062 23.3906
z
" id="DejaVuSans-2d"/>
       <path d="
M54.8906 33.0156
L54.8906 0
L45.9062 0
L45.9062 32.7188
Q45.9062 40.4844 42.875 44.3281
Q39.8438 48.1875 33.7969 48.1875
Q26.5156 48.1875 22.3125 43.5469
Q18.1094 38.9219 18.1094 30.9062
L18.1094 0
L9.07812 0
L9.07812 54.6875
L18.1094 54.6875
L18.1094 46.1875
Q21.3438 51.125 25.7031 53.5625
Q30.0781 56 35.7969 56
Q45.2188 56 50.0469 50.1719
Q54.8906 44.3438 54.8906 33.0156" id="DejaVuSans-6e"/>
       <path d="
M32.1719 -5.07812
Q28.375 -14.8438 24.75 -17.8125
Q21.1406 -20.7969 15.0938 -20.7969
L7.90625 -20.7969
L7.90625 -13.2812
L13.1875 -13.2812
Q16.8906 -13.2812 18.9375 -11.5156
Q21 -9.76562 23.4844 -3.21875
L25.0938 0.875
L2.98438 54.6875
L12.5 54.6875
L29.5938 11.9219
L46.6875 54.6875
L56.2031 54.6875
z
" id="DejaVuSans-79"/>
       <path d="
M54.8906 33.0156
L54.8906 0
L45.9062 0
L45.9062 32.7188
Q45.9062 40.4844 42.875 44.3281
Q39.8438 48.1875 33.7969 48.1875
Q26.5156 48.1875 22.3125 43.5469
Q18.1094 38.9219 18.1094 30.9062
L18.1094 0
L9.07812 0
L9.07812 75.9844
L18.1094 75.9844
L18.1094 46.1875
Q21.3438 51.125 25.7031 53.5625
Q30.0781 56 35.7969 56
Q45.2188 56 50.0469 50.1719
Q54.8906 44.3438 54.8906 33.0156" id="DejaVuSans-68"/>
       <path d="
M9.42188 54.6875
L18.4062 54.6875
L18.4062 0
L9.42188 0
z

M9.42188 75.9844
L18.4062 75.9844
L18.4062 64.5938
L9.42188 64.5938
z
" id="DejaVuSans-69"/>
       <path d="
M8.5 21.5781
L8.5 54.6875
L17.4844 54.6875
L17.4844 21.9219
Q17.4844 14.1562 20.5 10.2656
Q23.5312 6.39062 29.5938 6.39062
Q36.8594 6.39062 41.0781 11.0312
Q45.3125 15.6719 45.3125 23.6875
L45.3125 54.6875
L54.2969 54.6875
L54.2969 0
L45.3125 0
L45.3125 8.40625
Q42.0469 3.42188 37.7188 1
Q33.4062 -1.42188 27.6875 -1.42188
Q18.2656 -1.42188 13.375 4.4375
Q8.5 10.2969 8.5 21.5781
M31.1094 56
z
" id="DejaVuSans-75"/>
       <path d="
M18.3125 70.2188
L18.3125 54.6875
L36.8125 54.6875
L36.8125 47.7031
L18.3125 47.7031
L18.3125 18.0156
Q18.3125 11.3281 20.1406 9.42188
Q21.9688 7.51562 27.5938 7.51562
L36.8125 7.51562
L36.8125 0
L27.5938 0
Q17.1875 0 13.2344 3.875
Q9.28125 7.76562 9.28125 18.0156
L9.28125 47.7031
L2.6875 47.7031
L2.6875 54.6875
L9.28125 54.6875
L9.28125 70.2188
z
" id="DejaVuSans-74"/>
       <path d="
M18.1094 8.20312
L18.1094 -20.7969
L9.07812 -20.7969
L9.07812 54.6875
L18.1094 54.6875
L18.1094 46.3906
Q20.9531 51.2656 25.2656 53.625
Q29.5938 56 35.5938 56
Q45.5625 56 51.7812 48.0938
Q58.0156 40.1875 58.0156 27.2969
Q58.0156 14.4062 51.7812 6.48438
Q45.5625 -1.42188 35.5938 -1.42188
Q29.5938 -1.42188 25.2656 0.953125
Q20.9531 3.32812 18.1094 8.20312
M48.6875 27.2969
Q48.6875 37.2031 44.6094 42.8438
Q40.5312 48.4844 33.4062 48.4844
Q26.2656 48.4844 22.1875 42.8438
Q18.1094 37.2031 18.1094 27.2969
Q18.1094 17.3906 22.1875 11.75
Q26.2656 6.10938 33.4062 6.10938
Q40.5312 6.10938 44.6094 11.75
Q48.6875 17.3906 48.6875 27.2969" id="DejaVuSans-70"/>
       <path d="
M44.2812 53.0781
L44.2812 44.5781
Q40.4844 46.5312 36.375 47.5
Q32.2812 48.4844 27.875 48.4844
Q21.1875 48.4844 17.8438 46.4375
Q14.5 44.3906 14.5 40.2812
Q14.5 37.1562 16.8906 35.375
Q19.2812 33.5938 26.5156 31.9844
L29.5938 31.2969
Q39.1562 29.25 43.1875 25.5156
Q47.2188 21.7812 47.2188 15.0938
Q47.2188 7.46875 41.1875 3.01562
Q35.1562 -1.42188 24.6094 -1.42188
Q20.2188 -1.42188 15.4531 -0.5625
Q10.6875 0.296875 5.42188 2
L5.42188 11.2812
Q10.4062 8.6875 15.2344 7.39062
Q20.0625 6.10938 24.8125 6.10938
Q31.1562 6.10938 34.5625 8.28125
Q37.9844 10.4531 37.9844 14.4062
Q37.9844 18.0625 35.5156 20.0156
Q33.0625 21.9688 24.7031 23.7812
L21.5781 24.5156
Q13.2344 26.2656 9.51562 29.9062
Q5.8125 33.5469 5.8125 39.8906
Q5.8125 47.6094 11.2812 51.7969
Q16.75 56 26.8125 56
Q31.7812 56 36.1719 55.2656
Q40.5781 54.5469 44.2812 53.0781" id="DejaVuSans-73"/>
       <path d="
M34.2812 27.4844
Q23.3906 27.4844 19.1875 25
Q14.9844 22.5156 14.9844 16.5
Q14.9844 11.7188 18.1406 8.90625
Q21.2969 6.10938 26.7031 6.10938
Q34.1875 6.10938 38.7031 11.4062
Q43.2188 16.7031 43.2188 25.4844
L43.2188 27.4844
z

M52.2031 31.2031
L52.2031 0
L43.2188 0
L43.2188 8.29688
Q40.1406 3.32812 35.5469 0.953125
Q30.9531 -1.42188 24.3125 -1.42188
Q15.9219 -1.42188 10.9531 3.29688
Q6 8.01562 6 15.9219
Q6 25.1406 12.1719 29.8281
Q18.3594 34.5156 30.6094 34.5156
L43.2188 34.5156
L43.2188 35.4062
Q43.2188 41.6094 39.1406 45
Q35.0625 48.3906 27.6875 48.3906
Q23 48.3906 18.5469 47.2656
Q14.1094 46.1406 10.0156 43.8906
L10.0156 52.2031
Q14.9375 54.1094 19.5781 55.0469
Q24.2188 56 28.6094 56
Q40.4844 56 46.3438 49.8438
Q52.2031 43.7031 52.2031 31.2031" id="DejaVuSans-61"/>
      </defs>
      <g transform="translate(70.5654571929 404.731555952)rotate(-10.0)scale(0.16 -0.16)">
       <use xlink:href="#DejaVuSans-73"/>
       <use x="52.099609375" xlink:href="#DejaVuSans-68"/>
       <use x="115.478515625" xlink:href="#DejaVuSans-61"/>
       <use x="176.7578125" xlink:href="#DejaVuSans-2d"/>
       <use x="212.841796875" xlink:href="#DejaVuSans-70"/>
       <use x="276.318359375" xlink:href="#DejaVuSans-79"/>
       <use x="333.748046875" xlink:href="#DejaVuSans-2d"/>
       <use x="369.83203125" xlink:href="#DejaVuSans-75"/>
       <use x="433.2109375" xlink:href="#DejaVuSans-69"/>
       <use x="460.994140625" xlink:href="#DejaVuSans-6e"/>
       <use x="524.373046875" xlink:href="#DejaVuSans-73"/>
       <use x="576.47265625" xlink:href="#DejaVuSans-74"/>
      </g>
     </g>
    </g>
    <g id="xtick_2">
     <g id="line2d_4">
      <path clip-path="url(#p20575337b0)" d="
M199.649 371.871
L199.649 33.08" style="fill:none;stroke:#000000;stroke-dasharray:1.000000,3.000000;stroke-dashoffset:0.0;stroke-width:0.5;"/>
     </g>
     <g id="line2d_5">
      <g>
       <use style="stroke:#000000;stroke-width:0.5;" x="199.649324193" xlink:href="#m93b0483c22" y="371.870602176"/>
      </g>
     </g>
     <g id="line2d_6">
      <g>
       <use style="stroke:#000000;stroke-width:0.5;" x="199.649324193" xlink:href="#m741efc42ff" y="33.08"/>
      </g>
     </g>
     <g id="text_2">
      <!-- sha-py -->
      <g transform="translate(174.646024021 396.931279811)rotate(-10.0)scale(0.16 -0.16)">
       <use xlink:href="#DejaVuSans-73"/>
       <use x="52.099609375" xlink:href="#DejaVuSans-68"/>
       <use x="115.478515625" xlink:href="#DejaVuSans-61"/>
       <use x="176.7578125" xlink:href="#DejaVuSans-2d"/>
       <use x="212.841796875" xlink:href="#DejaVuSans-70"/>
       <use x="276.318359375" xlink:href="#DejaVuSans-79"/>
      </g>
     </g>
    </g>
    <g id="xtick_3">
     <g id="line2d_7">
      <path clip-path="url(#p20575337b0)" d="
M289.417 371.871
L289.417 33.08" style="fill:none;stroke:#000000;stroke-dasharray:1.000000,3.000000;stroke-dashoffset:0.0;stroke-width:0.5;"/>
     </g>
     <g id="line2d_8">
      <g>
       <use style="stroke:#000000;stroke-width:0.5;" x="289.416993145" xlink:href="#m93b0483c22" y="371.870602176"/>
      </g>
     </g>
     <g id="line2d_9">
      <g>
       <use style="stroke:#000000;stroke-width:0.5;" x="289.416993145" xlink:href="#m741efc42ff" y="33.08"/>
      </g>
     </g>
     <g id="text_3">
      <!-- aes-py-uinst -->
      <defs>
       <path d="
M56.2031 29.5938
L56.2031 25.2031
L14.8906 25.2031
Q15.4844 15.9219 20.4844 11.0625
Q25.4844 6.20312 34.4219 6.20312
Q39.5938 6.20312 44.4531 7.46875
Q49.3125 8.73438 54.1094 11.2812
L54.1094 2.78125
Q49.2656 0.734375 44.1875 -0.34375
Q39.1094 -1.42188 33.8906 -1.42188
Q20.7969 -1.42188 13.1562 6.1875
Q5.51562 13.8125 5.51562 26.8125
Q5.51562 40.2344 12.7656 48.1094
Q20.0156 56 32.3281 56
Q43.3594 56 49.7812 48.8906
Q56.2031 41.7969 56.2031 29.5938
M47.2188 32.2344
Q47.125 39.5938 43.0938 43.9844
Q39.0625 48.3906 32.4219 48.3906
Q24.9062 48.3906 20.3906 44.1406
Q15.875 39.8906 15.1875 32.1719
z
" id="DejaVuSans-65"/>
      </defs>
      <g transform="translate(242.485717342 404.664267283)rotate(-10.0)scale(0.16 -0.16)">
       <use xlink:href="#DejaVuSans-61"/>
       <use x="61.279296875" xlink:href="#DejaVuSans-65"/>
       <use x="122.802734375" xlink:href="#DejaVuSans-73"/>
       <use x="174.90234375" xlink:href="#DejaVuSans-2d"/>
       <use x="210.986328125" xlink:href="#DejaVuSans-70"/>
       <use x="274.462890625" xlink:href="#DejaVuSans-79"/>
       <use x="331.892578125" xlink:href="#DejaVuSans-2d"/>
       <use x="367.9765625" xlink:href="#DejaVuSans-75"/>
       <use x="431.35546875" xlink:href="#DejaVuSans-69"/>
       <use x="459.138671875" xlink:href="#DejaVuSans-6e"/>
       <use x="522.517578125" xlink:href="#DejaVuSans-73"/>
       <use x="574.6171875" xlink:href="#DejaVuSans-74"/>
      </g>
     </g>
    </g>
    <g id="xtick_4">
     <g id="line2d_10">
      <path clip-path="url(#p20575337b0)" d="
M398.699 371.871
L398.699 33.08" style="fill:none;stroke:#000000;stroke-dasharray:1.000000,3.000000;stroke-dashoffset:0.0;stroke-width:0.5;"/>
     </g>
     <g id="line2d_11">
      <g>
       <use style="stroke:#000000;stroke-width:0.5;" x="398.699372738" xlink:href="#m93b0483c22" y="371.870602176"/>
      </g>
     </g>
     <g id="line2d_12">
      <g>
       <use style="stroke:#000000;stroke-width:0.5;" x="398.699372738" xlink:href="#m741efc42ff" y="33.08"/>
      </g>
     </g>
     <g id="text_4">
      <!-- aes-verilog-uinst -->
      <defs>
       <path d="
M30.6094 48.3906
Q23.3906 48.3906 19.1875 42.75
Q14.9844 37.1094 14.9844 27.2969
Q14.9844 17.4844 19.1562 11.8438
Q23.3438 6.20312 30.6094 6.20312
Q37.7969 6.20312 41.9844 11.8594
Q46.1875 17.5312 46.1875 27.2969
Q46.1875 37.0156 41.9844 42.7031
Q37.7969 48.3906 30.6094 48.3906
M30.6094 56
Q42.3281 56 49.0156 48.375
Q55.7188 40.7656 55.7188 27.2969
Q55.7188 13.875 49.0156 6.21875
Q42.3281 -1.42188 30.6094 -1.42188
Q18.8438 -1.42188 12.1719 6.21875
Q5.51562 13.875 5.51562 27.2969
Q5.51562 40.7656 12.1719 48.375
Q18.8438 56 30.6094 56" id="DejaVuSans-6f"/>
       <path d="
M45.4062 27.9844
Q45.4062 37.75 41.375 43.1094
Q37.3594 48.4844 30.0781 48.4844
Q22.8594 48.4844 18.8281 43.1094
Q14.7969 37.75 14.7969 27.9844
Q14.7969 18.2656 18.8281 12.8906
Q22.8594 7.51562 30.0781 7.51562
Q37.3594 7.51562 41.375 12.8906
Q45.4062 18.2656 45.4062 27.9844
M54.3906 6.78125
Q54.3906 -7.17188 48.1875 -13.9844
Q42 -20.7969 29.2031 -20.7969
Q24.4688 -20.7969 20.2656 -20.0938
Q16.0625 -19.3906 12.1094 -17.9219
L12.1094 -9.1875
Q16.0625 -11.3281 19.9219 -12.3438
Q23.7812 -13.375 27.7812 -13.375
Q36.625 -13.375 41.0156 -8.76562
Q45.4062 -4.15625 45.4062 5.17188
L45.4062 9.625
Q42.625 4.78125 38.2812 2.39062
Q33.9375 0 27.875 0
Q17.8281 0 11.6719 7.65625
Q5.51562 15.3281 5.51562 27.9844
Q5.51562 40.6719 11.6719 48.3281
Q17.8281 56 27.875 56
Q33.9375 56 38.2812 53.6094
Q42.625 51.2188 45.4062 46.3906
L45.4062 54.6875
L54.3906 54.6875
z
" id="DejaVuSans-67"/>
       <path d="
M2.98438 54.6875
L12.5 54.6875
L29.5938 8.79688
L46.6875 54.6875
L56.2031 54.6875
L35.6875 0
L23.4844 0
z
" id="DejaVuSans-76"/>
       <path d="
M9.42188 75.9844
L18.4062 75.9844
L18.4062 0
L9.42188 0
z
" id="DejaVuSans-6c"/>
       <path d="
M41.1094 46.2969
Q39.5938 47.1719 37.8125 47.5781
Q36.0312 48 33.8906 48
Q26.2656 48 22.1875 43.0469
Q18.1094 38.0938 18.1094 28.8125
L18.1094 0
L9.07812 0
L9.07812 54.6875
L18.1094 54.6875
L18.1094 46.1875
Q20.9531 51.1719 25.4844 53.5781
Q30.0312 56 36.5312 56
Q37.4531 56 38.5781 55.875
Q39.7031 55.7656 41.0625 55.5156
z
" id="DejaVuSans-72"/>
      </defs>
      <g transform="translate(334.552426403 410.735441695)rotate(-10.0)scale(0.16 -0.16)">
       <use xlink:href="#DejaVuSans-61"/>
       <use x="61.279296875" xlink:href="#DejaVuSans-65"/>
       <use x="122.802734375" xlink:href="#DejaVuSans-73"/>
       <use x="174.90234375" xlink:href="#DejaVuSans-2d"/>
       <use x="208.361328125" xlink:href="#DejaVuSans-76"/>
       <use x="267.541015625" xlink:href="#DejaVuSans-65"/>
       <use x="329.064453125" xlink:href="#DejaVuSans-72"/>
       <use x="370.177734375" xlink:href="#DejaVuSans-69"/>
       <use x="397.9609375" xlink:href="#DejaVuSans-6c"/>
       <use x="425.744140625" xlink:href="#DejaVuSans-6f"/>
       <use x="486.92578125" xlink:href="#DejaVuSans-67"/>
       <use x="550.40234375" xlink:href="#DejaVuSans-2d"/>
       <use x="586.486328125" xlink:href="#DejaVuSans-75"/>
       <use x="649.865234375" xlink:href="#DejaVuSans-69"/>
       <use x="677.6484375" xlink:href="#DejaVuSans-6e"/>
       <use x="741.02734375" xlink:href="#DejaVuSans-73"/>
       <use x="793.126953125" xlink:href="#DejaVuSans-74"/>
      </g>
     </g>
    </g>
    <g id="xtick_5">
     <g id="line2d_13">
      <path clip-path="url(#p20575337b0)" d="
M507.982 371.871
L507.982 33.08" style="fill:none;stroke:#000000;stroke-dasharray:1.000000,3.000000;stroke-dashoffset:0.0;stroke-width:0.5;"/>
     </g>
     <g id="line2d_14">
      <g>
       <use style="stroke:#000000;stroke-width:0.5;" x="507.981752332" xlink:href="#m93b0483c22" y="371.870602176"/>
      </g>
     </g>
     <g id="line2d_15">
      <g>
       <use style="stroke:#000000;stroke-width:0.5;" x="507.981752332" xlink:href="#m741efc42ff" y="33.08"/>
      </g>
     </g>
     <g id="text_5">
      <!-- aes-py -->
      <g transform="translate(483.169258661 396.863991142)rotate(-10.0)scale(0.16 -0.16)">
       <use xlink:href="#DejaVuSans-61"/>
       <use x="61.279296875" xlink:href="#DejaVuSans-65"/>
       <use x="122.802734375" xlink:href="#DejaVuSans-73"/>
       <use x="174.90234375" xlink:href="#DejaVuSans-2d"/>
       <use x="210.986328125" xlink:href="#DejaVuSans-70"/>
       <use x="274.462890625" xlink:href="#DejaVuSans-79"/>
      </g>
     </g>
    </g>
   </g>
   <g id="matplotlib.axis_2">
    <g id="ytick_1">
     <g id="line2d_16">
      <path clip-path="url(#p20575337b0)" d="
M74.7552 371.871
L558.72 371.871" style="fill:none;stroke:#000000;stroke-dasharray:1.000000,3.000000;stroke-dashoffset:0.0;stroke-width:0.5;"/>
     </g>
     <g id="line2d_17">
      <defs>
       <path d="
M0 0
L4 0" id="m728421d6d4" style="stroke:#000000;stroke-width:0.5;"/>
      </defs>
      <g>
       <use style="stroke:#000000;stroke-width:0.5;" x="74.7551760864" xlink:href="#m728421d6d4" y="371.870602176"/>
      </g>
     </g>
     <g id="line2d_18">
      <defs>
       <path d="
M0 0
L-4 0" id="mcb0005524f" style="stroke:#000000;stroke-width:0.5;"/>
      </defs>
      <g>
       <use style="stroke:#000000;stroke-width:0.5;" x="558.72" xlink:href="#mcb0005524f" y="371.870602176"/>
      </g>
     </g>
     <g id="text_6">
      <!-- $\mathdefault{10^{-1}}$ -->
      <defs>
       <path d="
M12.4062 8.29688
L28.5156 8.29688
L28.5156 63.9219
L10.9844 60.4062
L10.9844 69.3906
L28.4219 72.9062
L38.2812 72.9062
L38.2812 8.29688
L54.3906 8.29688
L54.3906 0
L12.4062 0
z
" id="DejaVuSans-31"/>
       <path d="
M31.7812 66.4062
Q24.1719 66.4062 20.3281 58.9062
Q16.5 51.4219 16.5 36.375
Q16.5 21.3906 20.3281 13.8906
Q24.1719 6.39062 31.7812 6.39062
Q39.4531 6.39062 43.2812 13.8906
Q47.125 21.3906 47.125 36.375
Q47.125 51.4219 43.2812 58.9062
Q39.4531 66.4062 31.7812 66.4062
M31.7812 74.2188
Q44.0469 74.2188 50.5156 64.5156
Q56.9844 54.8281 56.9844 36.375
Q56.9844 17.9688 50.5156 8.26562
Q44.0469 -1.42188 31.7812 -1.42188
Q19.5312 -1.42188 13.0625 8.26562
Q6.59375 17.9688 6.59375 36.375
Q6.59375 54.8281 13.0625 64.5156
Q19.5312 74.2188 31.7812 74.2188" id="DejaVuSans-30"/>
      </defs>
      <g transform="translate(37.4751760864 377.423102176)scale(0.16 -0.16)">
       <use transform="translate(0.0 0.153125)" xlink:href="#DejaVuSans-31"/>
       <use transform="translate(63.623046875 0.153125)" xlink:href="#DejaVuSans-30"/>
       <use transform="translate(127.24609375 57.965625)scale(0.7)" xlink:href="#DejaVuSans-2d"/>
       <use transform="translate(152.504882812 57.965625)scale(0.7)" xlink:href="#DejaVuSans-31"/>
      </g>
     </g>
    </g>
    <g id="ytick_2">
     <g id="line2d_19">
      <path clip-path="url(#p20575337b0)" d="
M74.7552 258.94
L558.72 258.94" style="fill:none;stroke:#000000;stroke-dasharray:1.000000,3.000000;stroke-dashoffset:0.0;stroke-width:0.5;"/>
     </g>
     <g id="line2d_20">
      <g>
       <use style="stroke:#000000;stroke-width:0.5;" x="74.7551760864" xlink:href="#m728421d6d4" y="258.940401451"/>
      </g>
     </g>
     <g id="line2d_21">
      <g>
       <use style="stroke:#000000;stroke-width:0.5;" x="558.72" xlink:href="#mcb0005524f" y="258.940401451"/>
      </g>
     </g>
     <g id="text_7">
      <!-- $\mathdefault{10^{0}}$ -->
      <g transform="translate(41.4751760864 264.572901451)scale(0.16 -0.16)">
       <use transform="translate(0.0 0.234375)" xlink:href="#DejaVuSans-31"/>
       <use transform="translate(63.623046875 0.234375)" xlink:href="#DejaVuSans-30"/>
       <use transform="translate(127.24609375 58.046875)scale(0.7)" xlink:href="#DejaVuSans-30"/>
      </g>
     </g>
    </g>
    <g id="ytick_3">
     <g id="line2d_22">
      <path clip-path="url(#p20575337b0)" d="
M74.7552 146.01
L558.72 146.01" style="fill:none;stroke:#000000;stroke-dasharray:1.000000,3.000000;stroke-dashoffset:0.0;stroke-width:0.5;"/>
     </g>
     <g id="line2d_23">
      <g>
       <use style="stroke:#000000;stroke-width:0.5;" x="74.7551760864" xlink:href="#m728421d6d4" y="146.010200725"/>
      </g>
     </g>
     <g id="line2d_24">
      <g>
       <use style="stroke:#000000;stroke-width:0.5;" x="558.72" xlink:href="#mcb0005524f" y="146.010200725"/>
      </g>
     </g>
     <g id="text_8">
      <!-- $\mathdefault{10^{1}}$ -->
      <g transform="translate(41.4751760864 151.562700725)scale(0.16 -0.16)">
       <use transform="translate(0.0 0.153125)" xlink:href="#DejaVuSans-31"/>
       <use transform="translate(63.623046875 0.153125)" xlink:href="#DejaVuSans-30"/>
       <use transform="translate(127.24609375 57.965625)scale(0.7)" xlink:href="#DejaVuSans-31"/>
      </g>
     </g>
    </g>
    <g id="ytick_4">
     <g id="line2d_25">
      <path clip-path="url(#p20575337b0)" d="
M74.7552 33.08
L558.72 33.08" style="fill:none;stroke:#000000;stroke-dasharray:1.000000,3.000000;stroke-dashoffset:0.0;stroke-width:0.5;"/>
     </g>
     <g id="line2d_26">
      <g>
       <use style="stroke:#000000;stroke-width:0.5;" x="74.7551760864" xlink:href="#m728421d6d4" y="33.08"/>
      </g>
     </g>
     <g id="line2d_27">
      <g>
       <use style="stroke:#000000;stroke-width:0.5;" x="558.72" xlink:href="#mcb0005524f" y="33.08"/>
      </g>
     </g>
     <g id="text_9">
      <!-- $\mathdefault{10^{2}}$ -->
      <defs>
       <path d="
M19.1875 8.29688
L53.6094 8.29688
L53.6094 0
L7.32812 0
L7.32812 8.29688
Q12.9375 14.1094 22.625 23.8906
Q32.3281 33.6875 34.8125 36.5312
Q39.5469 41.8438 41.4219 45.5312
Q43.3125 49.2188 43.3125 52.7812
Q43.3125 58.5938 39.2344 62.25
Q35.1562 65.9219 28.6094 65.9219
Q23.9688 65.9219 18.8125 64.3125
Q13.6719 62.7031 7.8125 59.4219
L7.8125 69.3906
Q13.7656 71.7812 18.9375 73
Q24.125 74.2188 28.4219 74.2188
Q39.75 74.2188 46.4844 68.5469
Q53.2188 62.8906 53.2188 53.4219
Q53.2188 48.9219 51.5312 44.8906
Q49.8594 40.875 45.4062 35.4062
Q44.1875 33.9844 37.6406 27.2188
Q31.1094 20.4531 19.1875 8.29688" id="DejaVuSans-32"/>
      </defs>
      <g transform="translate(41.4751760864 38.7125)scale(0.16 -0.16)">
       <use transform="translate(0.0 0.234375)" xlink:href="#DejaVuSans-31"/>
       <use transform="translate(63.623046875 0.234375)" xlink:href="#DejaVuSans-30"/>
       <use transform="translate(127.24609375 58.046875)scale(0.7)" xlink:href="#DejaVuSans-32"/>
      </g>
     </g>
    </g>
    <g id="ytick_5">
     <g id="line2d_28">
      <defs>
       <path d="
M0 0
L2 0" id="mf0c55a9a47" style="stroke:#000000;stroke-width:0.5;"/>
      </defs>
      <g>
       <use style="stroke:#000000;stroke-width:0.5;" x="74.7551760864" xlink:href="#mf0c55a9a47" y="337.875224341"/>
      </g>
     </g>
     <g id="line2d_29">
      <defs>
       <path d="
M0 0
L-2 0" id="ma4f294b3af" style="stroke:#000000;stroke-width:0.5;"/>
      </defs>
      <g>
       <use style="stroke:#000000;stroke-width:0.5;" x="558.72" xlink:href="#ma4f294b3af" y="337.875224341"/>
      </g>
     </g>
    </g>
    <g id="ytick_6">
     <g id="line2d_30">
      <g>
       <use style="stroke:#000000;stroke-width:0.5;" x="74.7551760864" xlink:href="#mf0c55a9a47" y="317.98920311"/>
      </g>
     </g>
     <g id="line2d_31">
      <g>
       <use style="stroke:#000000;stroke-width:0.5;" x="558.72" xlink:href="#ma4f294b3af" y="317.98920311"/>
      </g>
     </g>
    </g>
    <g id="ytick_7">
     <g id="line2d_32">
      <g>
       <use style="stroke:#000000;stroke-width:0.5;" x="74.7551760864" xlink:href="#mf0c55a9a47" y="303.879846506"/>
      </g>
     </g>
     <g id="line2d_33">
      <g>
       <use style="stroke:#000000;stroke-width:0.5;" x="558.72" xlink:href="#ma4f294b3af" y="303.879846506"/>
      </g>
     </g>
    </g>
    <g id="ytick_8">
     <g id="line2d_34">
      <g>
       <use style="stroke:#000000;stroke-width:0.5;" x="74.7551760864" xlink:href="#mf0c55a9a47" y="292.935779285"/>
      </g>
     </g>
     <g id="line2d_35">
      <g>
       <use style="stroke:#000000;stroke-width:0.5;" x="558.72" xlink:href="#ma4f294b3af" y="292.935779285"/>
      </g>
     </g>
    </g>
    <g id="ytick_9">
     <g id="line2d_36">
      <g>
       <use style="stroke:#000000;stroke-width:0.5;" x="74.7551760864" xlink:href="#mf0c55a9a47" y="283.993825275"/>
      </g>
     </g>
     <g id="line2d_37">
      <g>
       <use style="stroke:#000000;stroke-width:0.5;" x="558.72" xlink:href="#ma4f294b3af" y="283.993825275"/>
      </g>
     </g>
    </g>
    <g id="ytick_10">
     <g id="line2d_38">
      <g>
       <use style="stroke:#000000;stroke-width:0.5;" x="74.7551760864" xlink:href="#mf0c55a9a47" y="276.433510884"/>
      </g>
     </g>
     <g id="line2d_39">
      <g>
       <use style="stroke:#000000;stroke-width:0.5;" x="558.72" xlink:href="#ma4f294b3af" y="276.433510884"/>
      </g>
     </g>
    </g>
    <g id="ytick_11">
     <g id="line2d_40">
      <g>
       <use style="stroke:#000000;stroke-width:0.5;" x="74.7551760864" xlink:href="#mf0c55a9a47" y="269.884468672"/>
      </g>
     </g>
     <g id="line2d_41">
      <g>
       <use style="stroke:#000000;stroke-width:0.5;" x="558.72" xlink:href="#ma4f294b3af" y="269.884468672"/>
      </g>
     </g>
    </g>
    <g id="ytick_12">
     <g id="line2d_42">
      <g>
       <use style="stroke:#000000;stroke-width:0.5;" x="74.7551760864" xlink:href="#mf0c55a9a47" y="264.107804044"/>
      </g>
     </g>
     <g id="line2d_43">
      <g>
       <use style="stroke:#000000;stroke-width:0.5;" x="558.72" xlink:href="#ma4f294b3af" y="264.107804044"/>
      </g>
     </g>
    </g>
    <g id="ytick_13">
     <g id="line2d_44">
      <g>
       <use style="stroke:#000000;stroke-width:0.5;" x="74.7551760864" xlink:href="#mf0c55a9a47" y="224.945023616"/>
      </g>
     </g>
     <g id="line2d_45">
      <g>
       <use style="stroke:#000000;stroke-width:0.5;" x="558.72" xlink:href="#ma4f294b3af" y="224.945023616"/>
      </g>
     </g>
    </g>
    <g id="ytick_14">
     <g id="line2d_46">
      <g>
       <use style="stroke:#000000;stroke-width:0.5;" x="74.7551760864" xlink:href="#mf0c55a9a47" y="205.059002385"/>
      </g>
     </g>
     <g id="line2d_47">
      <g>
       <use style="stroke:#000000;stroke-width:0.5;" x="558.72" xlink:href="#ma4f294b3af" y="205.059002385"/>
      </g>
     </g>
    </g>
    <g id="ytick_15">
     <g id="line2d_48">
      <g>
       <use style="stroke:#000000;stroke-width:0.5;" x="74.7551760864" xlink:href="#mf0c55a9a47" y="190.949645781"/>
      </g>
     </g>
     <g id="line2d_49">
      <g>
       <use style="stroke:#000000;stroke-width:0.5;" x="558.72" xlink:href="#ma4f294b3af" y="190.949645781"/>
      </g>
     </g>
    </g>
    <g id="ytick_16">
     <g id="line2d_50">
      <g>
       <use style="stroke:#000000;stroke-width:0.5;" x="74.7551760864" xlink:href="#mf0c55a9a47" y="180.00557856"/>
      </g>
     </g>
     <g id="line2d_51">
      <g>
       <use style="stroke:#000000;stroke-width:0.5;" x="558.72" xlink:href="#ma4f294b3af" y="180.00557856"/>
      </g>
     </g>
    </g>
    <g id="ytick_17">
     <g id="line2d_52">
      <g>
       <use style="stroke:#000000;stroke-width:0.5;" x="74.7551760864" xlink:href="#mf0c55a9a47" y="171.06362455"/>
      </g>
     </g>
     <g id="line2d_53">
      <g>
       <use style="stroke:#000000;stroke-width:0.5;" x="558.72" xlink:href="#ma4f294b3af" y="171.06362455"/>
      </g>
     </g>
    </g>
    <g id="ytick_18">
     <g id="line2d_54">
      <g>
       <use style="stroke:#000000;stroke-width:0.5;" x="74.7551760864" xlink:href="#mf0c55a9a47" y="163.503310159"/>
      </g>
     </g>
     <g id="line2d_55">
      <g>
       <use style="stroke:#000000;stroke-width:0.5;" x="558.72" xlink:href="#ma4f294b3af" y="163.503310159"/>
      </g>
     </g>
    </g>
    <g id="ytick_19">
     <g id="line2d_56">
      <g>
       <use style="stroke:#000000;stroke-width:0.5;" x="74.7551760864" xlink:href="#mf0c55a9a47" y="156.954267947"/>
      </g>
     </g>
     <g id="line2d_57">
      <g>
       <use style="stroke:#000000;stroke-width:0.5;" x="558.72" xlink:href="#ma4f294b3af" y="156.954267947"/>
      </g>
     </g>
    </g>
    <g id="ytick_20">
     <g id="line2d_58">
      <g>
       <use style="stroke:#000000;stroke-width:0.5;" x="74.7551760864" xlink:href="#mf0c55a9a47" y="151.177603319"/>
      </g>
     </g>
     <g id="line2d_59">
      <g>
       <use style="stroke:#000000;stroke-width:0.5;" x="558.72" xlink:href="#ma4f294b3af" y="151.177603319"/>
      </g>
     </g>
    </g>
    <g id="ytick_21">
     <g id="line2d_60">
      <g>
       <use style="stroke:#000000;stroke-width:0.5;" x="74.7551760864" xlink:href="#mf0c55a9a47" y="112.014822891"/>
      </g>
     </g>
     <g id="line2d_61">
      <g>
       <use style="stroke:#000000;stroke-width:0.5;" x="558.72" xlink:href="#ma4f294b3af" y="112.014822891"/>
      </g>
     </g>
    </g>
    <g id="ytick_22">
     <g id="line2d_62">
      <g>
       <use style="stroke:#000000;stroke-width:0.5;" x="74.7551760864" xlink:href="#mf0c55a9a47" y="92.1288016595"/>
      </g>
     </g>
     <g id="line2d_63">
      <g>
       <use style="stroke:#000000;stroke-width:0.5;" x="558.72" xlink:href="#ma4f294b3af" y="92.1288016595"/>
      </g>
     </g>
    </g>
    <g id="ytick_23">
     <g id="line2d_64">
      <g>
       <use style="stroke:#000000;stroke-width:0.5;" x="74.7551760864" xlink:href="#mf0c55a9a47" y="78.0194450559"/>
      </g>
     </g>
     <g id="line2d_65">
      <g>
       <use style="stroke:#000000;stroke-width:0.5;" x="558.72" xlink:href="#ma4f294b3af" y="78.0194450559"/>
      </g>
     </g>
    </g>
    <g id="ytick_24">
     <g id="line2d_66">
      <g>
       <use style="stroke:#000000;stroke-width:0.5;" x="74.7551760864" xlink:href="#mf0c55a9a47" y="67.0753778347"/>
      </g>
     </g>
     <g id="line2d_67">
      <g>
       <use style="stroke:#000000;stroke-width:0.5;" x="558.72" xlink:href="#ma4f294b3af" y="67.0753778347"/>
      </g>
     </g>
    </g>
    <g id="ytick_25">
     <g id="line2d_68">
      <g>
       <use style="stroke:#000000;stroke-width:0.5;" x="74.7551760864" xlink:href="#mf0c55a9a47" y="58.1334238248"/>
      </g>
     </g>
     <g id="line2d_69">
      <g>
       <use style="stroke:#000000;stroke-width:0.5;" x="558.72" xlink:href="#ma4f294b3af" y="58.1334238248"/>
      </g>
     </g>
    </g>
    <g id="ytick_26">
     <g id="line2d_70">
      <g>
       <use style="stroke:#000000;stroke-width:0.5;" x="74.7551760864" xlink:href="#mf0c55a9a47" y="50.5731094339"/>
      </g>
     </g>
     <g id="line2d_71">
      <g>
       <use style="stroke:#000000;stroke-width:0.5;" x="558.72" xlink:href="#ma4f294b3af" y="50.5731094339"/>
      </g>
     </g>
    </g>
    <g id="ytick_27">
     <g id="line2d_72">
      <g>
       <use style="stroke:#000000;stroke-width:0.5;" x="74.7551760864" xlink:href="#mf0c55a9a47" y="44.0240672213"/>
      </g>
     </g>
     <g id="line2d_73">
      <g>
       <use style="stroke:#000000;stroke-width:0.5;" x="558.72" xlink:href="#ma4f294b3af" y="44.0240672213"/>
      </g>
     </g>
    </g>
    <g id="ytick_28">
     <g id="line2d_74">
      <g>
       <use style="stroke:#000000;stroke-width:0.5;" x="74.7551760864" xlink:href="#mf0c55a9a47" y="38.2474025937"/>
      </g>
     </g>
     <g id="line2d_75">
      <g>
       <use style="stroke:#000000;stroke-width:0.5;" x="558.72" xlink:href="#ma4f294b3af" y="38.2474025937"/>
      </g>
     </g>
    </g>
    <g id="text_10">
     <!-- Time (s) -->
     <defs>
      <path d="
M31 75.875
Q24.4688 64.6562 21.2812 53.6562
Q18.1094 42.6719 18.1094 31.3906
Q18.1094 20.125 21.3125 9.0625
Q24.5156 -2 31 -13.1875
L23.1875 -13.1875
Q15.875 -1.70312 12.2344 9.375
Q8.59375 20.4531 8.59375 31.3906
Q8.59375 42.2812 12.2031 53.3125
Q15.8281 64.3594 23.1875 75.875
z
" id="DejaVuSans-28"/>
      <path d="
M52 44.1875
Q55.375 50.25 60.0625 53.125
Q64.75 56 71.0938 56
Q79.6406 56 84.2812 50.0156
Q88.9219 44.0469 88.9219 33.0156
L88.9219 0
L79.8906 0
L79.8906 32.7188
Q79.8906 40.5781 77.0938 44.375
Q74.3125 48.1875 68.6094 48.1875
Q61.625 48.1875 57.5625 43.5469
Q53.5156 38.9219 53.5156 30.9062
L53.5156 0
L44.4844 0
L44.4844 32.7188
Q44.4844 40.625 41.7031 44.4062
Q38.9219 48.1875 33.1094 48.1875
Q26.2188 48.1875 22.1562 43.5312
Q18.1094 38.875 18.1094 30.9062
L18.1094 0
L9.07812 0
L9.07812 54.6875
L18.1094 54.6875
L18.1094 46.1875
Q21.1875 51.2188 25.4844 53.6094
Q29.7812 56 35.6875 56
Q41.6562 56 45.8281 52.9688
Q50 49.9531 52 44.1875" id="DejaVuSans-6d"/>
      <path d="
M8.01562 75.875
L15.8281 75.875
Q23.1406 64.3594 26.7812 53.3125
Q30.4219 42.2812 30.4219 31.3906
Q30.4219 20.4531 26.7812 9.375
Q23.1406 -1.70312 15.8281 -13.1875
L8.01562 -13.1875
Q14.5 -2 17.7031 9.0625
Q20.9062 20.125 20.9062 31.3906
Q20.9062 42.6719 17.7031 53.6562
Q14.5 64.6562 8.01562 75.875" id="DejaVuSans-29"/>
      <path id="DejaVuSans-20"/>
      <path d="
M-0.296875 72.9062
L61.375 72.9062
L61.375 64.5938
L35.5 64.5938
L35.5 0
L25.5938 0
L25.5938 64.5938
L-0.296875 64.5938
z
" id="DejaVuSans-54"/>
     </defs>
     <g transform="translate(29.1476760864 234.337801088)rotate(-90.0)scale(0.16 -0.16)">
      <use xlink:href="#DejaVuSans-54"/>
      <use x="57.958984375" xlink:href="#DejaVuSans-69"/>
      <use x="85.7421875" xlink:href="#DejaVuSans-6d"/>
      <use x="183.154296875" xlink:href="#DejaVuSans-65"/>
      <use x="244.677734375" xlink:href="#DejaVuSans-20"/>
      <use x="276.46484375" xlink:href="#DejaVuSans-28"/>
      <use x="315.478515625" xlink:href="#DejaVuSans-73"/>
      <use x="367.578125" xlink:href="#DejaVuSans-29"/>
     </g>
    </g>
   </g>
   <g id="patch_117">
    <path d="
M74.7552 33.08
L558.72 33.08" style="fill:none;stroke:#000000;"/>
   </g>
   <g id="patch_118">
    <path d="
M558.72 371.871
L558.72 33.08" style="fill:none;stroke:#000000;"/>
   </g>
   <g id="patch_119">
    <path d="
M74.7552 371.871
L558.72 371.871" style="fill:none;stroke:#000000;"/>
   </g>
   <g id="patch_120">
    <path d="
M74.7552 371.871
L74.7552 33.08" style="fill:none;stroke:#000000;"/>
   </g>
   <g id="text_11">
    <!-- (b) Accelerator ILAs -->
    <defs>
     <path d="
M9.8125 72.9062
L19.6719 72.9062
L19.6719 8.29688
L55.1719 8.29688
L55.1719 0
L9.8125 0
z
" id="DejaVuSans-4c"/>
     <path d="
M48.6875 27.2969
Q48.6875 37.2031 44.6094 42.8438
Q40.5312 48.4844 33.4062 48.4844
Q26.2656 48.4844 22.1875 42.8438
Q18.1094 37.2031 18.1094 27.2969
Q18.1094 17.3906 22.1875 11.75
Q26.2656 6.10938 33.4062 6.10938
Q40.5312 6.10938 44.6094 11.75
Q48.6875 17.3906 48.6875 27.2969
M18.1094 46.3906
Q20.9531 51.2656 25.2656 53.625
Q29.5938 56 35.5938 56
Q45.5625 56 51.7812 48.0938
Q58.0156 40.1875 58.0156 27.2969
Q58.0156 14.4062 51.7812 6.48438
Q45.5625 -1.42188 35.5938 -1.42188
Q29.5938 -1.42188 25.2656 0.953125
Q20.9531 3.32812 18.1094 8.20312
L18.1094 0
L9.07812 0
L9.07812 75.9844
L18.1094 75.9844
z
" id="DejaVuSans-62"/>
     <path d="
M34.1875 63.1875
L20.7969 26.9062
L47.6094 26.9062
z

M28.6094 72.9062
L39.7969 72.9062
L67.5781 0
L57.3281 0
L50.6875 18.7031
L17.8281 18.7031
L11.1875 0
L0.78125 0
z
" id="DejaVuSans-41"/>
     <path d="
M9.8125 72.9062
L19.6719 72.9062
L19.6719 0
L9.8125 0
z
" id="DejaVuSans-49"/>
     <path d="
M48.7812 52.5938
L48.7812 44.1875
Q44.9688 46.2969 41.1406 47.3438
Q37.3125 48.3906 33.4062 48.3906
Q24.6562 48.3906 19.8125 42.8438
Q14.9844 37.3125 14.9844 27.2969
Q14.9844 17.2812 19.8125 11.7344
Q24.6562 6.20312 33.4062 6.20312
Q37.3125 6.20312 41.1406 7.25
Q44.9688 8.29688 48.7812 10.4062
L48.7812 2.09375
Q45.0156 0.34375 40.9844 -0.53125
Q36.9688 -1.42188 32.4219 -1.42188
Q20.0625 -1.42188 12.7812 6.34375
Q5.51562 14.1094 5.51562 27.2969
Q5.51562 40.6719 12.8594 48.3281
Q20.2188 56 33.0156 56
Q37.1562 56 41.1094 55.1406
Q45.0625 54.2969 48.7812 52.5938" id="DejaVuSans-63"/>
    </defs>
    <g transform="translate(248.170400543 28.08)scale(0.14 -0.14)">
     <use xlink:href="#DejaVuSans-28"/>
     <use x="39.013671875" xlink:href="#DejaVuSans-62"/>
     <use x="102.490234375" xlink:href="#DejaVuSans-29"/>
     <use x="141.50390625" xlink:href="#DejaVuSans-20"/>
     <use x="173.291015625" xlink:href="#DejaVuSans-41"/>
     <use x="239.94921875" xlink:href="#DejaVuSans-63"/>
     <use x="294.9296875" xlink:href="#DejaVuSans-63"/>
     <use x="349.91015625" xlink:href="#DejaVuSans-65"/>
     <use x="411.43359375" xlink:href="#DejaVuSans-6c"/>
     <use x="439.216796875" xlink:href="#DejaVuSans-65"/>
     <use x="500.740234375" xlink:href="#DejaVuSans-72"/>
     <use x="541.853515625" xlink:href="#DejaVuSans-61"/>
     <use x="603.1328125" xlink:href="#DejaVuSans-74"/>
     <use x="642.341796875" xlink:href="#DejaVuSans-6f"/>
     <use x="703.5234375" xlink:href="#DejaVuSans-72"/>
     <use x="744.63671875" xlink:href="#DejaVuSans-20"/>
     <use x="776.423828125" xlink:href="#DejaVuSans-49"/>
     <use x="805.916015625" xlink:href="#DejaVuSans-4c"/>
     <use x="863.87890625" xlink:href="#DejaVuSans-41"/>
     <use x="932.287109375" xlink:href="#DejaVuSans-73"/>
    </g>
   </g>
   <g id="legend_1">
    <g id="patch_121">
     <path d="
M84.3552 104.804
L251.815 104.804
L251.815 42.68
L84.3552 42.68
L84.3552 104.804
z
" style="fill:#ffffff;stroke:#000000;"/>
    </g>
    <g id="patch_122">
     <path d="
M92.0352 64.949
L130.435 64.949
L130.435 51.509
L92.0352 51.509
z
" style="fill:#ffff00;stroke:#000000;"/>
    </g>
    <g id="text_12">
     <!-- SynPARAM -->
     <defs>
      <path d="
M53.5156 70.5156
L53.5156 60.8906
Q47.9062 63.5781 42.9219 64.8906
Q37.9375 66.2188 33.2969 66.2188
Q25.25 66.2188 20.875 63.0938
Q16.5 59.9688 16.5 54.2031
Q16.5 49.3594 19.4062 46.8906
Q22.3125 44.4375 30.4219 42.9219
L36.375 41.7031
Q47.4062 39.5938 52.6562 34.2969
Q57.9062 29 57.9062 20.125
Q57.9062 9.51562 50.7969 4.04688
Q43.7031 -1.42188 29.9844 -1.42188
Q24.8125 -1.42188 18.9688 -0.25
Q13.1406 0.921875 6.89062 3.21875
L6.89062 13.375
Q12.8906 10.0156 18.6562 8.29688
Q24.4219 6.59375 29.9844 6.59375
Q38.4219 6.59375 43.0156 9.90625
Q47.6094 13.2344 47.6094 19.3906
Q47.6094 24.75 44.3125 27.7812
Q41.0156 30.8125 33.5 32.3281
L27.4844 33.5
Q16.4531 35.6875 11.5156 40.375
Q6.59375 45.0625 6.59375 53.4219
Q6.59375 63.0938 13.4062 68.6562
Q20.2188 74.2188 32.1719 74.2188
Q37.3125 74.2188 42.625 73.2812
Q47.9531 72.3594 53.5156 70.5156" id="DejaVuSans-53"/>
      <path d="
M44.3906 34.1875
Q47.5625 33.1094 50.5625 29.5938
Q53.5625 26.0781 56.5938 19.9219
L66.6094 0
L56 0
L46.6875 18.7031
Q43.0625 26.0312 39.6719 28.4219
Q36.2812 30.8125 30.4219 30.8125
L19.6719 30.8125
L19.6719 0
L9.8125 0
L9.8125 72.9062
L32.0781 72.9062
Q44.5781 72.9062 50.7344 67.6719
Q56.8906 62.4531 56.8906 51.9062
Q56.8906 45.0156 53.6875 40.4688
Q50.4844 35.9375 44.3906 34.1875
M19.6719 64.7969
L19.6719 38.9219
L32.0781 38.9219
Q39.2031 38.9219 42.8438 42.2188
Q46.4844 45.5156 46.4844 51.9062
Q46.4844 58.2969 42.8438 61.5469
Q39.2031 64.7969 32.0781 64.7969
z
" id="DejaVuSans-52"/>
      <path d="
M9.8125 72.9062
L24.5156 72.9062
L43.1094 23.2969
L61.8125 72.9062
L76.5156 72.9062
L76.5156 0
L66.8906 0
L66.8906 64.0156
L48.0938 14.0156
L38.1875 14.0156
L19.3906 64.0156
L19.3906 0
L9.8125 0
z
" id="DejaVuSans-4d"/>
      <path d="
M19.6719 64.7969
L19.6719 37.4062
L32.0781 37.4062
Q38.9688 37.4062 42.7188 40.9688
Q46.4844 44.5312 46.4844 51.125
Q46.4844 57.6719 42.7188 61.2344
Q38.9688 64.7969 32.0781 64.7969
z

M9.8125 72.9062
L32.0781 72.9062
Q44.3438 72.9062 50.6094 67.3594
Q56.8906 61.8125 56.8906 51.125
Q56.8906 40.3281 50.6094 34.8125
Q44.3438 29.2969 32.0781 29.2969
L19.6719 29.2969
L19.6719 0
L9.8125 0
z
" id="DejaVuSans-50"/>
     </defs>
     <g transform="translate(145.795176086 64.949)scale(0.192 -0.192)">
      <use xlink:href="#DejaVuSans-53"/>
      <use x="63.4765625" xlink:href="#DejaVuSans-79"/>
      <use x="122.65625" xlink:href="#DejaVuSans-6e"/>
      <use x="186.03515625" xlink:href="#DejaVuSans-50"/>
      <use x="239.962890625" xlink:href="#DejaVuSans-41"/>
      <use x="308.37109375" xlink:href="#DejaVuSans-52"/>
      <use x="373.853515625" xlink:href="#DejaVuSans-41"/>
      <use x="442.26171875" xlink:href="#DejaVuSans-4d"/>
     </g>
    </g>
    <g id="patch_123">
     <path d="
M92.0352 93.131
L130.435 93.131
L130.435 79.691
L92.0352 79.691
z
" style="fill:#0000ff;stroke:#000000;"/>
    </g>
    <g id="text_13">
     <!-- SynCEGIS -->
     <defs>
      <path d="
M9.8125 72.9062
L55.9062 72.9062
L55.9062 64.5938
L19.6719 64.5938
L19.6719 43.0156
L54.3906 43.0156
L54.3906 34.7188
L19.6719 34.7188
L19.6719 8.29688
L56.7812 8.29688
L56.7812 0
L9.8125 0
z
" id="DejaVuSans-45"/>
      <path d="
M59.5156 10.4062
L59.5156 29.9844
L43.4062 29.9844
L43.4062 38.0938
L69.2812 38.0938
L69.2812 6.78125
Q63.5781 2.73438 56.6875 0.65625
Q49.8125 -1.42188 42 -1.42188
Q24.9062 -1.42188 15.25 8.5625
Q5.60938 18.5625 5.60938 36.375
Q5.60938 54.25 15.25 64.2344
Q24.9062 74.2188 42 74.2188
Q49.125 74.2188 55.5469 72.4531
Q61.9688 70.7031 67.3906 67.2812
L67.3906 56.7812
Q61.9219 61.4219 55.7656 63.7656
Q49.6094 66.1094 42.8281 66.1094
Q29.4375 66.1094 22.7188 58.6406
Q16.0156 51.1719 16.0156 36.375
Q16.0156 21.625 22.7188 14.1562
Q29.4375 6.6875 42.8281 6.6875
Q48.0469 6.6875 52.1406 7.59375
Q56.25 8.5 59.5156 10.4062" id="DejaVuSans-47"/>
      <path d="
M64.4062 67.2812
L64.4062 56.8906
Q59.4219 61.5312 53.7812 63.8125
Q48.1406 66.1094 41.7969 66.1094
Q29.2969 66.1094 22.6562 58.4688
Q16.0156 50.8281 16.0156 36.375
Q16.0156 21.9688 22.6562 14.3281
Q29.2969 6.6875 41.7969 6.6875
Q48.1406 6.6875 53.7812 8.98438
Q59.4219 11.2812 64.4062 15.9219
L64.4062 5.60938
Q59.2344 2.09375 53.4375 0.328125
Q47.6562 -1.42188 41.2188 -1.42188
Q24.6562 -1.42188 15.125 8.70312
Q5.60938 18.8438 5.60938 36.375
Q5.60938 53.9531 15.125 64.0781
Q24.6562 74.2188 41.2188 74.2188
Q47.75 74.2188 53.5312 72.4844
Q59.3281 70.75 64.4062 67.2812" id="DejaVuSans-43"/>
     </defs>
     <g transform="translate(145.795176086 93.131)scale(0.192 -0.192)">
      <use xlink:href="#DejaVuSans-53"/>
      <use x="63.4765625" xlink:href="#DejaVuSans-79"/>
      <use x="122.65625" xlink:href="#DejaVuSans-6e"/>
      <use x="186.03515625" xlink:href="#DejaVuSans-43"/>
      <use x="255.859375" xlink:href="#DejaVuSans-45"/>
      <use x="319.04296875" xlink:href="#DejaVuSans-47"/>
      <use x="396.533203125" xlink:href="#DejaVuSans-49"/>
      <use x="426.025390625" xlink:href="#DejaVuSans-53"/>
     </g>
    </g>
   </g>
  </g>
 </g>
 <defs>
  <clipPath id="p20575337b0">
   <rect height="338.790602176" width="483.964823914" x="74.7551760864" y="33.08"/>
  </clipPath>
 </defs>
</svg>
